<mxfile host="app.diagrams.net" modified="2024-05-04T13:59:40.195Z" agent="Mozilla/5.0 (Windows NT 10.0; Win64; x64) AppleWebKit/537.36 (KHTML, like Gecko) Chrome/124.0.0.0 Safari/537.36 Edg/124.0.0.0" etag="iiR_asFvZFosYO6E7HB3" version="24.3.1" type="github">
  <diagram name="第 1 页" id="2a8IaGi-SIB8uY6eGXwn">
    <mxGraphModel dx="2295" dy="1992" grid="0" gridSize="10" guides="1" tooltips="1" connect="1" arrows="1" fold="1" page="1" pageScale="1" pageWidth="827" pageHeight="1169" math="0" shadow="0">
      <root>
        <mxCell id="0" />
        <mxCell id="1" parent="0" />
        <mxCell id="u_eatWrobegxD37L-Buj-10" value="" style="edgeStyle=orthogonalEdgeStyle;rounded=0;orthogonalLoop=1;jettySize=auto;html=1;exitX=0;exitY=1;exitDx=0;exitDy=0;" edge="1" parent="1" source="u_eatWrobegxD37L-Buj-3" target="u_eatWrobegxD37L-Buj-9">
          <mxGeometry relative="1" as="geometry" />
        </mxCell>
        <mxCell id="u_eatWrobegxD37L-Buj-12" style="edgeStyle=orthogonalEdgeStyle;rounded=0;orthogonalLoop=1;jettySize=auto;html=1;exitX=1;exitY=1;exitDx=0;exitDy=0;entryX=0.5;entryY=0;entryDx=0;entryDy=0;" edge="1" parent="1" source="u_eatWrobegxD37L-Buj-3" target="u_eatWrobegxD37L-Buj-11">
          <mxGeometry relative="1" as="geometry" />
        </mxCell>
        <mxCell id="u_eatWrobegxD37L-Buj-3" value="Player" style="ellipse;whiteSpace=wrap;html=1;" vertex="1" parent="1">
          <mxGeometry x="120" y="40" width="120" height="80" as="geometry" />
        </mxCell>
        <mxCell id="u_eatWrobegxD37L-Buj-15" style="edgeStyle=orthogonalEdgeStyle;rounded=0;orthogonalLoop=1;jettySize=auto;html=1;exitX=1;exitY=0.5;exitDx=0;exitDy=0;entryX=0;entryY=0.5;entryDx=0;entryDy=0;dashed=1;" edge="1" parent="1" source="u_eatWrobegxD37L-Buj-9" target="u_eatWrobegxD37L-Buj-11">
          <mxGeometry relative="1" as="geometry" />
        </mxCell>
        <mxCell id="u_eatWrobegxD37L-Buj-17" value="GetComponent&amp;lt;CharacterStats&amp;gt;()&lt;div&gt;on Awake()&lt;/div&gt;" style="edgeLabel;html=1;align=center;verticalAlign=middle;resizable=0;points=[];" vertex="1" connectable="0" parent="u_eatWrobegxD37L-Buj-15">
          <mxGeometry x="-0.0733" y="2" relative="1" as="geometry">
            <mxPoint as="offset" />
          </mxGeometry>
        </mxCell>
        <mxCell id="u_eatWrobegxD37L-Buj-9" value="PlayerController" style="rhombus;whiteSpace=wrap;html=1;fillColor=#dae8fc;strokeColor=#6c8ebf;" vertex="1" parent="1">
          <mxGeometry x="-90" y="200" width="140" height="80" as="geometry" />
        </mxCell>
        <mxCell id="u_eatWrobegxD37L-Buj-11" value="CharacterStats" style="rhombus;whiteSpace=wrap;html=1;fillColor=#dae8fc;strokeColor=#6c8ebf;" vertex="1" parent="1">
          <mxGeometry x="290" y="200" width="140" height="80" as="geometry" />
        </mxCell>
        <mxCell id="u_eatWrobegxD37L-Buj-13" value="MonoBehavior" style="rhombus;whiteSpace=wrap;html=1;fillColor=#dae8fc;strokeColor=#6c8ebf;" vertex="1" parent="1">
          <mxGeometry x="300" y="-80" width="140" height="80" as="geometry" />
        </mxCell>
        <mxCell id="u_eatWrobegxD37L-Buj-14" value="GameObject" style="ellipse;whiteSpace=wrap;html=1;" vertex="1" parent="1">
          <mxGeometry x="120" y="-80" width="120" height="80" as="geometry" />
        </mxCell>
      </root>
    </mxGraphModel>
  </diagram>
</mxfile>
